<svg xmlns="http://www.w3.org/2000/svg" width="25.314" height="26.556" viewBox="0 0 25.314 26.556">
  <path id="Path_432" data-name="Path 432" d="M249.91,108.161l-2.43-4.176V97.457l.534-1.044a.968.968,0,0,0-.811-1.5h-7.543a.968.968,0,0,0-.813,1.494l.525,1.018v6.558l-2.43,4.176a.989.989,0,0,0,.856,1.487h5.216v6.5a.411.411,0,0,0,.823,0v-6.5h5.216a.99.99,0,0,0,.855-1.487Zm-.71.581a.162.162,0,0,1-.145.084H237.8a.167.167,0,0,1-.145-.251l2.485-4.272a.411.411,0,0,0,.056-.207V97.327a.41.41,0,0,0-.046-.188l-.578-1.121h0a.413.413,0,0,0-.03-.049.146.146,0,0,1,.119-.23H247.2a.146.146,0,0,1,.121.228.357.357,0,0,0-.028.047L246.7,97.17a.418.418,0,0,0-.045.188V104.1a.411.411,0,0,0,.056.207l2.485,4.272a.162.162,0,0,1,0,.167Z" transform="translate(-109.98 -222.087) rotate(39)" fill="#212121" stroke="#212121" stroke-width="1"/>
</svg>
